<?xml version="1.0" standalone="no"?>
<?xml-stylesheet type="text/css" href="../css/styles.css"?>
<svg xmlns="http://www.w3.org/2000/svg" width="1135" height="130" viewBox="0 0 1135 130">
    <path d="M16.683 127.8C5.29 125.382-2.236 114.533.6 104.615c.428-1.496 7.176-13.276 14.996-26.177L29.815 54.98l.05-20 .05-20.001-5.279-.286c-5.1-.277-5.353-.358-7.497-2.42-1.802-1.734-2.219-2.593-2.217-4.572.003-3.129 1.97-5.98 4.857-7.043C23.086-.56 81.373-.56 84.68.658c5.185 1.908 6.445 8.329 2.344 11.945-1.877 1.655-2.476 1.828-7.262 2.09l-5.217.286.05 20 .05 20.001 14.218 23.458c7.82 12.901 14.569 24.681 14.997 26.177 1.155 4.04.419 9-1.968 13.27-2.256 4.035-5.672 6.87-10.781 8.944-3.182 1.292-3.317 1.297-37.583 1.394-18.915.054-35.495-.137-36.845-.423zm73.243-6.07c5.743-2.706 9.059-8.01 8.582-13.728-.252-3.017-1.546-5.399-14.842-27.306L69.101 56.695l-.325-20.858-.324-20.858H36.008l-.325 20.858-.324 20.858-14.56 24C8.203 101.457 6.202 105.1 5.956 107.704c-.66 7.015 3.893 12.94 11.555 15.04.894.244 16.956.399 35.692.342 33.704-.103 34.094-.117 36.723-1.356zm-73.054-4.665c-3.127-1.477-5.416-5.362-4.895-8.31.225-1.276 4.883-9.635 10.907-19.572L33.4 71.838H71.06L81.719 89.41c11.798 19.453 12.218 20.584 9.233 24.838-2.771 3.95-2.05 3.878-38.83 3.878-30.908 0-33.148-.068-35.25-1.06zm55.183-16.956c6.09-2.773 7.62-10.33 3.026-14.94-7.904-7.927-22.117-1.482-19.204 8.709.887 3.1 4.085 6.226 7.226 7.062 2.539.676 6.438.314 8.952-.83zm-25.272-38.5c-4.89-4.024-.642-11.208 5.981-10.114 3.304.546 5.306 2.758 5.306 5.864 0 2.183-.32 2.825-2.12 4.24-2.92 2.299-6.38 2.302-9.167.008zm10.297-28.93c-2.212-2.074-2.103-5.137.247-6.917 4.672-3.539 11.187.542 8.838 5.536-.974 2.071-2.4 2.824-5.344 2.824-1.515 0-2.68-.45-3.741-1.444z" class="icon-purpose"/>
    <g transform="matrix(6.50406 0 0 6.50406 98.544 -12.61)" class="icon-links">
        <path d="M16 8a6 6 0 0 1 6 6v7h-4v-7a2 2 0 0 0-2-2 2 2 0 0 0-2 2v7h-4v-7a6 6 0 0 1 6-6zM2 9h4v12H2z"/>
        <circle cx="4" cy="4" r="2"/>
    </g>
    <path d="M283.013 118.25c-15.65-5.254-29.133-9.927-29.964-10.384-4.286-2.356-7.435-14.128-5.892-22.022.44-2.251 1.439-5.013 2.218-6.137 1.823-2.63 1.821-2.639-.832-3.184-2.226-.457-2.235-.476-.877-1.84.755-.757 3.258-2.022 5.562-2.812 4.848-1.66 5.581-3.05 4.864-9.226-.56-4.82-2.356-7.758-5.87-9.599-3.895-2.04-3.839-4.004.148-5.102 4.22-1.163 4.222-1.165 2.339-4.502-3.552-6.294-4.131-17.469-1.211-23.348 2.283-4.597 4.622-5.61 16.934-7.34 5.98-.84 25.772-3.66 43.983-6.268l33.111-4.74 20.198 6.244c35.28 10.908 33.877 10.412 33.877 11.996 0 .923-.801 1.766-2.28 2.403-1.254.54-2.986 1.755-3.85 2.702-1.857 2.036-3.22 8.433-2.607 12.233.396 2.453.715 2.758 4.057 3.88 4.56 1.53 7.485 3.035 7.485 3.85 0 .347-1.657 1.03-3.682 1.517-2.026.488-3.904 1.016-4.174 1.173-.27.157.204 1.492 1.052 2.967 1.323 2.298 1.538 3.711 1.504 9.885-.042 7.76-1.35 12.233-4.532 15.5-1.251 1.286-1.368 1.722-.597 2.224.528.343 1.32.629 1.762.635 1.372.02 1.617 1.987.378 3.046-.65.555-2.031 1.381-3.072 1.836-1.04.455-2.396 1.616-3.011 2.581-1.428 2.238-2.37 8.3-1.826 11.74.398 2.517.654 2.74 4.78 4.16 4.757 1.638 7.515 3.707 5.756 4.317-2.449.849-85.723 21.31-86.457 21.243-.452-.04-13.625-4.373-29.274-9.628zm30.207-8.661c0-9.369-.044-9.648-1.579-10.114-.868-.264-13.653-4.521-28.41-9.461-14.759-4.94-27.386-8.802-28.06-8.582-4.495 1.465-4.878 16.383-.528 20.58 1.142 1.103 6.51 2.979 17.658 6.173 8.81 2.524 21.384 6.166 27.942 8.093 6.558 1.927 12.161 3.378 12.45 3.224.29-.153.527-4.614.527-9.913zm69.552-6.894l2.565-.696.286-7.014c.158-3.858.543-7.598.856-8.311.48-1.093.306-1.237-1.098-.91-.917.212-10.979 2.342-22.36 4.733-11.38 2.391-22.676 5.02-25.1 5.84-2.426.822-4.81 1.336-5.3 1.143-.49-.193-4.345.358-8.568 1.224l-7.677 1.575-.195 9.793-.194 9.793 32.11-8.237c17.66-4.53 33.264-8.55 34.675-8.933zm-52.718-23.182l-.35-9.542-9.12-1.954c-37.011-7.93-60.898-12.833-61.17-12.555-.175.18.084 1.085.576 2.01.53.996.9 4.268.909 8.012.012 5.761.141 6.36 1.441 6.688.786.197 15.79 4.042 33.344 8.543 17.553 4.501 32.546 8.22 33.318 8.262 1.353.075 1.39-.264 1.052-9.464zm32.04 1.68c14.977-4.323 27.722-8.06 28.32-8.307 2.26-.93 3.73-4.896 4.037-10.887.336-6.569-.826-10.09-3.56-10.786-.96-.244-9.428 2.236-21.907 6.419-11.188 3.75-23.893 7.998-28.233 9.442l-7.891 2.624v7.426c0 7.804.498 11.928 1.44 11.928.31 0 12.817-3.537 27.794-7.86zm-44.403-24.65c.241-1.237.439-5.6.439-9.693v-7.443l-27.964-9.396c-15.38-5.168-28.642-9.397-29.47-9.397-2.48 0-4.287 3.911-4.29 9.282-.003 5.54 1.09 9.624 3.082 11.522.961.915 11 4.164 28.83 9.332 15.046 4.361 27.712 7.955 28.146 7.987.434.032.986-.955 1.227-2.193zm38.341-6.423l34.045-8.705.047-6.258c.027-3.442.402-7.15.835-8.24.433-1.09.512-1.98.177-1.98-1.608 0-69.21 14.554-69.622 14.989-.794.836-1.012 18.87-.228 18.885.386.009 16.022-3.903 34.746-8.69z" class="icon-purpose"/>
    <g style="line-height:1.25;-inkscape-font-specification:'Poplar Std'" font-weight="400" font-size="69.573" font-family="Gill Sans Ultra Bold" letter-spacing="0" word-spacing="0" class="icon-purpose">
        <path d="M412.74 73.53V52.294q6.87 0 10-3.194 3.198-3.258 3.198-10.336V27.99q0-13.97 6.122-19.607 6.123-5.638 20.478-5.638h11.02v20.546h-2.516q-6.123 0-8.3 2.82-2.11 2.818-2.11 11.024v3.445q0 19.356-12.313 22.175v.313q12.314 2.82 12.314 22.175v3.446q0 8.206 2.109 11.024 2.177 2.82 8.3 2.82h2.517v20.546h-11.021q-14.695 0-20.682-5.763-5.918-5.763-5.918-19.482V87.06q0-7.016-3.13-10.273-3.13-3.257-10.068-3.257zM563.156 52.294V73.53q-6.939 0-10.136 3.257-3.13 3.195-3.13 10.273v10.774q0 13.97-6.123 19.607-6.054 5.638-20.477 5.638H512.27v-20.547h2.517q6.123 0 8.3-2.819 2.177-2.818 2.177-11.024v-3.446q0-19.356 12.246-22.175v-.313q-12.246-2.819-12.246-22.175v-3.445q0-8.018-2.177-10.9-2.109-2.944-8.3-2.944h-2.517V2.745h11.021q14.763 0 20.681 5.763 5.92 5.763 5.92 19.482v10.774q0 7.016 3.129 10.273 3.197 3.257 10.136 3.257z" style="-inkscape-font-specification:'Gill Sans Ultra Bold, '"/>
    </g>
    <path d="M623.328 110.228c-29.62 8.886-29.62-14.81-41.468-17.772M664.796 128v-22.926a19.964 19.964 0 0 0-5.568-15.462c18.601-2.073 38.15-9.123 38.15-41.468a32.227 32.227 0 0 0-8.886-22.215 30.035 30.035 0 0 0-.533-22.334s-6.99-2.073-23.163 8.768a79.264 79.264 0 0 0-41.468 0c-16.172-10.841-23.163-8.768-23.163-8.768a30.035 30.035 0 0 0-.533 22.334 32.227 32.227 0 0 0-8.886 22.393c0 32.108 19.55 39.158 38.15 41.468a19.964 19.964 0 0 0-5.568 15.284V128" class="icon-links"/>
    <g color="#000" font-weight="400" font-family="sans-serif" white-space="normal" class="icon-menubtn">
        <path style="line-height:normal;font-variant-ligatures:normal;font-variant-position:normal;font-variant-caps:normal;font-variant-numeric:normal;font-variant-alternates:normal;font-feature-settings:normal;text-indent:0;text-align:start;text-decoration-line:none;text-decoration-style:solid;text-decoration-color:#000;text-transform:none;text-orientation:mixed;shape-padding:0;isolation:auto;mix-blend-mode:normal" d="M993.83 10.254L888.876 115.208l7.243 7.242 104.954-104.954z" overflow="visible"/>
        <path style="line-height:normal;font-variant-ligatures:normal;font-variant-position:normal;font-variant-caps:normal;font-variant-numeric:normal;font-variant-alternates:normal;font-feature-settings:normal;text-indent:0;text-align:start;text-decoration-line:none;text-decoration-style:solid;text-decoration-color:#000;text-transform:none;text-orientation:mixed;shape-padding:0;isolation:auto;mix-blend-mode:normal" d="M896.119 10.254l-7.243 7.242L993.83 122.45l7.243-7.242z" overflow="visible"/>
    </g>
    <g color="#000" font-weight="400" font-family="sans-serif" white-space="normal" class="icon-menubtn">
        <path style="line-height:normal;font-variant-ligatures:normal;font-variant-position:normal;font-variant-caps:normal;font-variant-numeric:normal;font-variant-alternates:normal;font-feature-settings:normal;text-indent:0;text-align:start;text-decoration-line:none;text-decoration-style:solid;text-decoration-color:#000;text-transform:none;text-orientation:mixed;shape-padding:0;isolation:auto;mix-blend-mode:normal" d="M730.294 59.344V72.02h141.762V59.344zM730.294 14.64v12.876h141.762V14.64zM730.294 104.148v12.876h141.762v-12.876z" overflow="visible"/>
    </g>
    <path d="M1114.66 120.115c2.615-.594 4.669-1.577 6.74-3.226 5.389-4.287 6.945-11.781 3.574-17.213-.492-.793-.448-.804-2.682.664-.704.463-1.362.871-1.463.907-.103.037-.056.216.11.412.425.504 1.026 1.858 1.278 2.877.137.552.18 1.502.114 2.524-.093 1.433-.203 1.836-.876 3.228-1.73 3.577-5.369 5.888-9.269 5.888-3.63 0-6.006-1.474-8.248-5.118-.34-.554-.802-1.295-1.024-1.647-.222-.352-1.377-2.204-2.566-4.114a2573.83 2573.83 0 0 0-2.998-4.81l-1.49-2.378c-.358-.572-1.542-2.48-2.63-4.24a828.096 828.096 0 0 0-2.385-3.84c-.224-.352-1.379-2.204-2.567-4.114a3387.67 3387.67 0 0 0-2.962-4.754 1726.448 1726.448 0 0 1-5.001-8.046 266.612 266.612 0 0 0-2.334-3.724l-.64-.981.226-1.596c.308-2.176.93-4.098 1.94-5.999 1.072-2.015 1.987-3.2 3.714-4.813 5.727-5.349 14.98-6.045 21.47-1.614.6.409 1.129.704 1.176.656.048-.047 0-.562-.11-1.143-.566-3.066.146-7.366 1.723-10.39 1.241-2.382 3.218-4.708 5.408-6.365 1.14-.862 3.343-1.925 5.2-2.51 3.207-1.009 7.358-.97 10.452.098.753.26 1.41.433 1.458.384.091-.092-3.432-3.7-4.871-4.988a65.559 65.559 0 0 0-27.702-14.685c-5.63-1.412-9.93-1.925-15.999-1.91-4.801.013-7.475.225-11.245.892-6.578 1.164-12.59 3.186-18.559 6.242-2.858 1.464-3.03 1.527-3.248 1.198-.218-.326-1.813-2.355-6.103-7.763l-1.848-2.328-.492.29c-.27.16-.68.433-.908.605l-.416.314.422.9c.232.496.76 1.519 1.174 2.273.415.754 1.232 2.277 1.817 3.383.584 1.106 1.43 2.703 1.879 3.55l.815 1.538-.431.339c-.238.186-.967.724-1.62 1.195-3.47 2.496-7.94 6.65-10.98 10.202-7.803 9.114-13.157 20.788-14.885 32.459-1.794 12.102-.59 22.773 3.88 34.406l.33.86.215-1.774c.393-3.256 1.777-6.667 3.67-9.047 3.835-4.818 10.154-7.393 15.997-6.517 2.919.437 5.082 1.226 7.324 2.67.69.445 1.285.779 1.322.742.037-.037-.02-.555-.112-1.152-.856-5.227 1.282-11.345 5.285-15.12 2.027-1.912 4.323-3.273 6.786-4.022 3.645-1.109 6.964-1.138 10.395-.09 1.243.379 1.38.472 1.82 1.232a74.31 74.31 0 0 0 1.415 2.286c1.329 2.067 3.987 6.33 4.158 6.666.08.155.466.776.86 1.38.395.603.94 1.467 1.21 1.92.271.452.757 1.234 1.08 1.736.321.503 1.967 3.136 3.656 5.851a7215.937 7215.937 0 0 0 7.523 12.068c4.356 6.983 4.957 7.942 6.748 10.786 2.075 3.295 4.098 4.97 7.304 6.051 1.812.61 5.14.781 6.997.36z" class="icon-logo"/>
</svg>
