<?xml version="1.0" encoding="UTF-8" standalone="no"?>
<!-- Created with Inkscape (http://www.inkscape.org/) -->

<svg
   xmlns:dc="http://purl.org/dc/elements/1.1/"
   xmlns:cc="http://creativecommons.org/ns#"
   xmlns:rdf="http://www.w3.org/1999/02/22-rdf-syntax-ns#"
   xmlns:svg="http://www.w3.org/2000/svg"
   xmlns="http://www.w3.org/2000/svg"
   xmlns:sodipodi="http://sodipodi.sourceforge.net/DTD/sodipodi-0.dtd"
   xmlns:inkscape="http://www.inkscape.org/namespaces/inkscape"
   width="1015"
   height="130"
   viewBox="0 0 1015 130"
   version="1.1"
   id="svg4852"
   inkscape:version="0.92.2 (5c3e80d, 2017-08-06)"
   sodipodi:docname="sprites.svg">
  <defs
     id="defs4846" />
  <sodipodi:namedview
     id="base"
     pagecolor="#ffffff"
     bordercolor="#666666"
     borderopacity="1.0"
     inkscape:pageopacity="0.0"
     inkscape:pageshadow="2"
     inkscape:zoom="2"
     inkscape:cx="881.04499"
     inkscape:cy="87.240157"
     inkscape:document-units="px"
     inkscape:current-layer="layer1"
     showgrid="false"
     units="px"
     inkscape:window-width="1439"
     inkscape:window-height="843"
     inkscape:window-x="134"
     inkscape:window-y="33"
     inkscape:window-maximized="1" />
  <metadata
     id="metadata4849">
    <rdf:RDF>
      <cc:Work
         rdf:about="">
        <dc:format>image/svg+xml</dc:format>
        <dc:type
           rdf:resource="http://purl.org/dc/dcmitype/StillImage" />
        <dc:title />
      </cc:Work>
    </rdf:RDF>
  </metadata>
  <g
     inkscape:label="Calque 1"
     inkscape:groupmode="layer"
     id="layer1"
     transform="translate(-3.8020833,-141.33813)">
    <g
       id="icon-lab"
       transform="matrix(3.0351303,0,0,3.0351303,-25.107532,-501.76994)"
       class="icon-purpose">
      <g
         inkscape:label="Calque 1"
         id="g13899"
         transform="matrix(1.5139782,0,0,1.3333313,2.6885123,-142.21467)">
        <g
           id="g13897"
           transform="translate(4.3684263,47.640029)">
          <path
             inkscape:connector-curvature="0"
             id="path13895"
             d="m 3.777709,249.51768 c -2.47935,-0.59741 -4.117135,-3.27826 -3.500008,-5.72909 0.09309,-0.36972 1.561682,-3.2806 3.26353,-6.46864 l 3.09427,-5.79646 0.01087,-4.94232 0.01087,-4.94231 -1.148727,-0.0707 c -1.109964,-0.0683 -1.165029,-0.0884 -1.631638,-0.59807 -0.392117,-0.4283 -0.482808,-0.64069 -0.482379,-1.12968 6.94e-4,-0.7731 0.42873,-1.47784 1.057098,-1.74039 0.719662,-0.30068 13.404159,-0.30068 14.123819,0 1.128393,0.47148 1.40259,2.05809 0.510113,2.95172 -0.408494,0.40902 -0.538942,0.45163 -1.580499,0.51642 l -1.135257,0.0707 0.01087,4.94231 0.01087,4.94232 3.094271,5.79646 c 1.701846,3.18804 3.170435,6.09892 3.263529,6.46864 0.251337,0.99815 0.09126,2.22382 -0.428286,3.27915 -0.490854,0.99708 -1.234191,1.69731 -2.346211,2.21014 -0.692289,0.31924 -0.721826,0.3205 -8.178891,0.34446 -4.116252,0.0132 -7.724449,-0.0339 -8.018218,-0.10466 z m 15.93931,-1.49967 c 1.2499,-0.66884 1.971397,-1.97943 1.867609,-3.39249 -0.05476,-0.74557 -0.336493,-1.33414 -3.229836,-6.74761 l -3.169842,-5.93079 -0.07061,-5.15413 -0.07061,-5.15413 H 11.513496 7.983264 l -0.07061,5.15413 -0.0706,5.15413 -3.16849,5.93044 c -2.741285,5.13085 -3.176811,6.03077 -3.230196,6.67454 -0.143745,1.73337 0.847062,3.19775 2.514516,3.71639 0.194665,0.0605 3.690008,0.0986 7.767427,0.0845 7.334701,-0.0253 7.419635,-0.0289 7.991696,-0.33497 z M 3.818916,246.86513 c -0.68053,-0.36497 -1.178607,-1.32504 -1.065343,-2.05354 0.04903,-0.31534 1.062761,-2.38083 2.373706,-4.83642 l 2.288131,-4.28601 h 4.098098 4.098097 l 2.319345,4.3422 c 2.567523,4.80681 2.659073,5.08644 2.009444,6.13757 -0.603194,0.97598 -0.446307,0.9582 -8.45043,0.9582 -6.726186,0 -7.213575,-0.0167 -7.671048,-0.262 z m 12.009001,-4.18999 c 1.325294,-0.68534 1.658381,-2.55277 0.658461,-3.69162 -1.720059,-1.95903 -4.813166,-0.36643 -4.179079,2.15177 0.192937,0.76622 0.888805,1.53857 1.572369,1.74518 0.552631,0.16702 1.401117,0.0776 1.948249,-0.20533 z m -5.499754,-9.51379 c -1.06428,-0.99418 -0.139643,-2.7695 1.301617,-2.4991 0.719095,0.1349 1.154612,0.68148 1.154612,1.44904 0,0.53952 -0.06974,0.69797 -0.461159,1.04769 -0.635781,0.56807 -1.388526,0.56897 -1.99507,0.002 z m 2.240787,-7.14888 c -0.481356,-0.51239 -0.457505,-1.26909 0.05387,-1.70896 1.016766,-0.87458 2.434525,0.13378 1.923323,1.36793 -0.211999,0.51182 -0.522116,0.69791 -1.16301,0.69791 -0.32963,0 -0.583405,-0.11124 -0.814178,-0.35688 z"
             style="fill-opacity:1" />
        </g>
      </g>
    </g>
    <g
       id="icon-linkedin"
       transform="matrix(24.582263,0,0,24.582263,-1219.0344,-5422.0339)"
       class="icon-links">
      <g
         transform="matrix(0.26458333,0,0,0.26458333,53.75341,225.80355)"
         id="g13929">
        <path
           inkscape:connector-curvature="0"
           d="m 16,8 a 6,6 0 0 1 6,6 v 7 h -4 v -7 a 2,2 0 0 0 -2,-2 2,2 0 0 0 -2,2 v 7 h -4 v -7 a 6,6 0 0 1 6,-6 z"
           id="path13923" />
        <rect
           x="2"
           y="9"
           width="4"
           height="12"
           id="rect13925" />
        <circle
           cx="4"
           cy="4"
           r="2"
           id="circle13927" />
      </g>
    </g>
    <g
       id="icon-books"
       transform="matrix(2.9795276,0,0,2.9795276,249.75333,-614.91469)"
       class="icon-purpose">
      <g
         inkscape:label="Calque 1"
         id="g13953"
         transform="matrix(0.69385364,0,0,0.7126084,-1.0939733,92.266326)">
        <path
           style="fill-opacity:1"
           d="M 19.503744,282.39571 C 11.934083,279.92097 5.4117517,277.7201 5.0096728,277.50492 2.9368007,276.39554 1.4134701,270.85109 2.1601014,267.13334 c 0.2129946,-1.06057 0.695664,-2.36144 1.0725995,-2.89079 0.882022,-1.2387 0.8809415,-1.24271 -0.402439,-1.49939 -1.0768567,-0.21536 -1.0811139,-0.22405 -0.4241152,-0.86625 0.3650143,-0.35679 1.5757155,-0.95287 2.6904494,-1.32463 2.3450621,-0.78205 2.6995939,-1.43682 2.3527676,-4.34532 -0.2706984,-2.27008 -1.1397604,-3.65378 -2.8394339,-4.52086 -1.8842855,-0.96132 -1.8567685,-1.88596 0.071512,-2.40314 2.0417108,-0.54761 2.0422444,-0.54861 1.1312404,-2.12046 -1.7178957,-2.96408 -1.9982226,-8.22733 -0.5856655,-10.99617 1.1045491,-2.16509 2.2358479,-2.64255 8.1911763,-3.45707 2.892469,-0.3956 12.466248,-1.72406 21.275084,-2.9521 l 16.016068,-2.23281 9.770095,2.94134 c 17.06482,5.13744 16.38627,4.90348 16.38627,5.64984 0,0.43443 -0.387234,0.83179 -1.102704,1.13155 -0.606478,0.25411 -1.444446,0.82681 -1.86214,1.2727 -0.898115,0.9587 -1.557554,3.97174 -1.260996,5.76152 0.19144,1.15544 0.345631,1.29901 1.962333,1.82725 2.205801,0.72074 3.620668,1.42938 3.620668,1.81341 0,0.16328 -0.801579,0.48479 -1.781273,0.7146 -0.979714,0.22984 -1.888126,0.47837 -2.018707,0.55228 -0.130581,0.0739 0.09849,0.70268 0.508931,1.39725 0.639641,1.08228 0.743654,1.74799 0.727381,4.65577 -0.02049,3.65489 -0.652979,5.76133 -2.192252,7.30059 -0.605351,0.60535 -0.661905,0.81044 -0.288668,1.04689 0.255282,0.16176 0.638678,0.29638 0.851973,0.29925 0.663905,0.009 0.782189,0.93578 0.183051,1.4345 -0.313989,0.26137 -0.982673,0.65048 -1.485976,0.86467 -0.503314,0.21418 -1.158753,0.76128 -1.456535,1.21577 -0.690483,1.05381 -1.146646,3.90919 -0.883314,5.52924 0.192661,1.18526 0.316617,1.29028 2.312638,1.95947 2.30044,0.77125 3.634943,1.7459 2.783824,2.03315 -1.184332,0.39972 -41.465004,10.03648 -41.820052,10.00505 -0.218438,-0.0194 -6.590505,-2.05996 -14.160158,-4.53473 z m 14.611239,-4.07919 c 0,-4.41252 -0.02102,-4.54378 -0.763415,-4.76339 -0.419871,-0.12424 -6.60411,-2.12943 -13.742749,-4.45606 -7.13864,-2.32661 -13.2462649,-4.14551 -13.5724971,-4.04196 -2.1743601,0.6901 -2.3595924,7.7162 -0.2555381,9.69284 0.5527563,0.51929 3.1489897,1.40297 8.5417442,2.90736 4.261184,1.18873 10.343181,2.90392 13.515565,3.8115 3.17237,0.9076 5.882462,1.59103 6.022419,1.51873 0.139951,-0.0724 0.254471,-2.17339 0.254471,-4.66902 z m 33.643026,-3.2469 1.240683,-0.32763 0.138707,-3.30353 c 0.0763,-1.81696 0.262529,-3.5785 0.413857,-3.91453 0.231854,-0.51484 0.148247,-0.58236 -0.531165,-0.42892 -0.443478,0.10011 -5.310415,1.10351 -10.815426,2.2297 -5.504997,1.12619 -10.968781,2.36405 -12.141718,2.7508 -1.172951,0.38676 -2.326435,0.62883 -2.563313,0.53793 -0.236879,-0.0909 -2.101804,0.16856 -4.144272,0.57644 l -3.713579,0.74172 -0.09412,4.61224 -0.09412,4.61223 15.53191,-3.87943 c 8.542553,-2.13368 16.090214,-4.02684 16.772598,-4.20702 z m -25.500029,-10.91836 -0.169646,-4.494 -4.410798,-0.92024 c -17.902998,-3.73517 -29.4573839,-6.04428 -29.5884906,-5.91317 -0.084974,0.085 0.040251,0.51108 0.2782718,0.94694 0.2560057,0.4688 0.4355083,2.00985 0.4394846,3.77305 0.00622,2.71351 0.068628,2.99575 0.6974246,3.14983 0.379887,0.0931 7.6376996,1.90375 16.1284596,4.02376 8.490772,2.12002 15.743131,3.87104 16.116348,3.89117 0.654299,0.0355 0.672523,-0.12405 0.508946,-4.45734 z m 15.498148,0.79121 c 7.244584,-2.03573 13.409075,-3.79637 13.698876,-3.91247 1.0932,-0.43805 1.80435,-2.30565 1.952461,-5.12754 0.162369,-3.09372 -0.399711,-4.75172 -1.722122,-5.07975 -0.464549,-0.1152 -4.560347,1.05324 -10.596691,3.0231 -5.411693,1.76603 -11.557118,3.76713 -13.656483,4.44689 l -3.817028,1.23592 v 3.49733 c 0,3.67586 0.240789,5.61789 0.696554,5.61789 0.14985,0 6.199833,-1.6656 13.444433,-3.70137 z M 36.277969,253.33333 c 0.116573,-0.58317 0.212052,-2.63766 0.212052,-4.56557 v -3.50533 l -13.526287,-4.42561 c -7.439455,-2.43412 -13.8543142,-4.42564 -14.2552319,-4.42564 -1.1990192,0 -2.0733849,1.84214 -2.0748649,4.37141 -0.00154,2.60906 0.5270455,4.53309 1.4908024,5.4266 0.4649447,0.43106 5.3208254,1.96159 13.9456944,4.39553 7.2778,2.05382 13.404127,3.74652 13.614075,3.76157 0.209937,0.0151 0.477129,-0.44979 0.59376,-1.03296 z m 18.54591,-3.02527 16.46775,-4.09988 0.02285,-2.94758 c 0.01282,-1.62116 0.194148,-3.36745 0.403595,-3.88063 0.209448,-0.51318 0.248023,-0.93306 0.08565,-0.93306 -0.777644,0 -33.477136,6.85474 -33.676761,7.0596 -0.384055,0.39412 -0.489208,8.88727 -0.110163,8.89473 0.186615,0.004 7.749774,-1.83826 16.807042,-4.09318 z"
           id="path13951"
           inkscape:connector-curvature="0" />
      </g>
    </g>
    <g
       id="icon-code"
       transform="matrix(2.8425197,0,0,2.8425197,263.86875,-579.05959)"
       class="icon-purpose">
      <g
         inkscape:label="Calque 1"
         id="g13983"
         transform="matrix(0.70451571,0,0,0.64869724,52.252534,108.11333)">
        <g
           aria-label="{ }"
           style="font-style:normal;font-variant:normal;font-weight:normal;font-stretch:normal;font-size:32.6125145px;line-height:1.25;font-family:'Poplar Std';-inkscape-font-specification:'Poplar Std';letter-spacing:0px;word-spacing:0px;fill-opacity:1"
           id="g13981">
          <path
             inkscape:connector-curvature="0"
             d="m 2.0693403,263.89924 v -11.51629 q 3.4311083,0 4.9937913,-1.73254 1.5966543,-1.76651 1.5966543,-5.60528 v -5.84307 q 0,-7.57562 3.0574231,-10.63304 3.057423,-3.05742 10.225382,-3.05742 h 5.503362 v 11.14261 h -1.256941 q -3.057423,0 -4.144507,1.52871 -1.053112,1.52871 -1.053112,5.97896 v 1.86842 q 0,10.49716 -6.148818,12.02587 v 0.16986 q 6.148818,1.52871 6.148818,12.02586 v 1.86843 q 0,4.45024 1.053112,5.97896 1.087084,1.52871 4.144507,1.52871 h 1.256941 v 11.14261 h -5.503362 q -7.337815,0 -10.327296,-3.12537 -2.9555091,-3.12536 -2.9555091,-10.56509 v -5.84308 q 0,-3.80479 -1.562683,-5.5713 -1.5626829,-1.76652 -5.0277626,-1.76652 z"
             style="font-style:normal;font-variant:normal;font-weight:normal;font-stretch:normal;font-size:69.57336426px;font-family:'Gill Sans Ultra Bold';-inkscape-font-specification:'Gill Sans Ultra Bold, ';fill-opacity:1"
             id="path13977" />
          <path
             inkscape:connector-curvature="0"
             d="m 77.180038,252.38295 v 11.51629 q -3.46508,0 -5.061734,1.76652 -1.562683,1.73253 -1.562683,5.5713 v 5.84308 q 0,7.57561 -3.057424,10.63303 -3.023451,3.05743 -10.225382,3.05743 h -5.503361 v -11.14261 h 1.25694 q 3.057423,0 4.144507,-1.52871 1.087084,-1.52872 1.087084,-5.97896 v -1.86843 q 0,-10.49715 6.114847,-12.02586 v -0.16986 q -6.114847,-1.52871 -6.114847,-12.02587 v -1.86842 q 0,-4.34834 -1.087084,-5.91102 -1.053112,-1.59665 -4.144507,-1.59665 h -1.25694 V 225.5116 h 5.503361 q 7.371787,0 10.327297,3.12536 2.955509,3.12537 2.955509,10.5651 v 5.84307 q 0,3.8048 1.562683,5.57131 1.596654,1.76651 5.061734,1.76651 z"
             style="font-style:normal;font-variant:normal;font-weight:normal;font-stretch:normal;font-size:69.57336426px;font-family:'Gill Sans Ultra Bold';-inkscape-font-specification:'Gill Sans Ultra Bold, ';fill-opacity:1"
             id="path13979" />
        </g>
      </g>
    </g>
    <g
       id="icon-github"
       transform="matrix(22.390032,0,0,22.390032,-619.28013,-5114.2549)"
       class="icon-links">
      <g
         transform="matrix(0.26458333,0,0,0.26458333,53.286843,234.62514)"
         id="g14007">
        <path
           inkscape:connector-curvature="0"
           d="M 9,19 C 4,20.5 4,16.5 2,16 m 14,6 v -3.87 a 3.37,3.37 0 0 0 -0.94,-2.61 c 3.14,-0.35 6.44,-1.54 6.44,-7 A 5.44,5.44 0 0 0 20,4.77 5.07,5.07 0 0 0 19.91,1 c 0,0 -1.18,-0.35 -3.91,1.48 a 13.38,13.38 0 0 0 -7,0 C 6.27,0.65 5.09,1 5.09,1 A 5.07,5.07 0 0 0 5,4.77 5.44,5.44 0 0 0 3.5,8.55 c 0,5.42 3.3,6.61 6.44,7 A 3.37,3.37 0 0 0 9,18.13 V 22"
           id="path14005" />
      </g>
    </g>
    <g
       id="icon-menuclose"
       transform="matrix(33.371356,0,0,33.371356,-933.16328,-7974.6788)"
       style="fill-opacity:1"
       class="icon-menubtn">
      <g
         transform="matrix(0.26458333,0,0,0.26458333,53.218872,242.01638)"
         id="g14061"
         style="fill-opacity:1">
        <path
           style="color:#000000;font-style:normal;font-variant:normal;font-weight:normal;font-stretch:normal;font-size:medium;line-height:normal;font-family:sans-serif;font-variant-ligatures:normal;font-variant-position:normal;font-variant-caps:normal;font-variant-numeric:normal;font-variant-alternates:normal;font-feature-settings:normal;text-indent:0;text-align:start;text-decoration:none;text-decoration-line:none;text-decoration-style:solid;text-decoration-color:#000000;letter-spacing:normal;word-spacing:normal;text-transform:none;writing-mode:lr-tb;direction:ltr;text-orientation:mixed;dominant-baseline:auto;baseline-shift:baseline;text-anchor:start;white-space:normal;shape-padding:0;clip-rule:nonzero;display:inline;overflow:visible;visibility:visible;opacity:1;isolation:auto;mix-blend-mode:normal;color-interpolation:sRGB;color-interpolation-filters:linearRGB;solid-color:#000000;solid-opacity:1;vector-effect:none;fill-opacity:1;fill-rule:nonzero;stroke:none;stroke-width:1;stroke-linecap:butt;stroke-linejoin:miter;stroke-miterlimit:4;stroke-dasharray:none;stroke-dashoffset:0;stroke-opacity:1;color-rendering:auto;image-rendering:auto;shape-rendering:auto;text-rendering:auto;enable-background:accumulate"
           d="M 17.533197,5.6464844 5.6464595,17.533278 6.4667774,18.353516 18.353516,6.4667451 Z"
           id="line14057"
           inkscape:connector-curvature="0"
           sodipodi:nodetypes="ccccc" />
        <path
           style="color:#000000;font-style:normal;font-variant:normal;font-weight:normal;font-stretch:normal;font-size:medium;line-height:normal;font-family:sans-serif;font-variant-ligatures:normal;font-variant-position:normal;font-variant-caps:normal;font-variant-numeric:normal;font-variant-alternates:normal;font-feature-settings:normal;text-indent:0;text-align:start;text-decoration:none;text-decoration-line:none;text-decoration-style:solid;text-decoration-color:#000000;letter-spacing:normal;word-spacing:normal;text-transform:none;writing-mode:lr-tb;direction:ltr;text-orientation:mixed;dominant-baseline:auto;baseline-shift:baseline;text-anchor:start;white-space:normal;shape-padding:0;clip-rule:nonzero;display:inline;overflow:visible;visibility:visible;opacity:1;isolation:auto;mix-blend-mode:normal;color-interpolation:sRGB;color-interpolation-filters:linearRGB;solid-color:#000000;solid-opacity:1;vector-effect:none;fill-opacity:1;fill-rule:nonzero;stroke:none;stroke-width:1;stroke-linecap:butt;stroke-linejoin:miter;stroke-miterlimit:4;stroke-dasharray:none;stroke-dashoffset:0;stroke-opacity:1;color-rendering:auto;image-rendering:auto;shape-rendering:auto;text-rendering:auto;enable-background:accumulate"
           d="M 6.4667774,5.6464844 5.6464844,6.4667451 17.533197,18.353516 18.353516,17.533278 Z"
           id="line14059"
           inkscape:connector-curvature="0"
           sodipodi:nodetypes="ccccc" />
      </g>
    </g>
    <g
       id="icon-menuopen"
       class="icon-menubtn"
       transform="matrix(29.766405,0,0,29.766405,-872.65783,-7294.5832)">
      <g
         transform="matrix(0.26458333,0,0,0.26458333,53.185018,248.84581)"
         id="g14091">
        <path
           style="color:#000000;font-style:normal;font-variant:normal;font-weight:normal;font-stretch:normal;font-size:medium;line-height:normal;font-family:sans-serif;font-variant-ligatures:normal;font-variant-position:normal;font-variant-caps:normal;font-variant-numeric:normal;font-variant-alternates:normal;font-feature-settings:normal;text-indent:0;text-align:start;text-decoration:none;text-decoration-line:none;text-decoration-style:solid;text-decoration-color:#000000;letter-spacing:normal;word-spacing:normal;text-transform:none;writing-mode:lr-tb;direction:ltr;text-orientation:mixed;dominant-baseline:auto;baseline-shift:baseline;text-anchor:start;white-space:normal;shape-padding:0;clip-rule:nonzero;display:inline;overflow:visible;visibility:visible;opacity:1;isolation:auto;mix-blend-mode:normal;color-interpolation:sRGB;color-interpolation-filters:linearRGB;solid-color:#000000;solid-opacity:1;vector-effect:none;fill-opacity:1;fill-rule:nonzero;stroke:none;stroke-width:1;stroke-linecap:butt;stroke-linejoin:miter;stroke-miterlimit:4;stroke-dasharray:none;stroke-dashoffset:0;stroke-opacity:1;color-rendering:auto;image-rendering:auto;shape-rendering:auto;text-rendering:auto;enable-background:accumulate"
           d="m 3,11.176178 v 1.609509 h 18 v -1.609509 z"
           id="line14085"
           inkscape:connector-curvature="0"
           sodipodi:nodetypes="ccccc" />
        <path
           style="color:#000000;font-style:normal;font-variant:normal;font-weight:normal;font-stretch:normal;font-size:medium;line-height:normal;font-family:sans-serif;font-variant-ligatures:normal;font-variant-position:normal;font-variant-caps:normal;font-variant-numeric:normal;font-variant-alternates:normal;font-feature-settings:normal;text-indent:0;text-align:start;text-decoration:none;text-decoration-line:none;text-decoration-style:solid;text-decoration-color:#000000;letter-spacing:normal;word-spacing:normal;text-transform:none;writing-mode:lr-tb;direction:ltr;text-orientation:mixed;dominant-baseline:auto;baseline-shift:baseline;text-anchor:start;white-space:normal;shape-padding:0;clip-rule:nonzero;display:inline;overflow:visible;visibility:visible;opacity:1;isolation:auto;mix-blend-mode:normal;color-interpolation:sRGB;color-interpolation-filters:linearRGB;solid-color:#000000;solid-opacity:1;vector-effect:none;fill-opacity:1;fill-rule:nonzero;stroke:none;stroke-width:1;stroke-linecap:butt;stroke-linejoin:miter;stroke-miterlimit:4;stroke-dasharray:none;stroke-dashoffset:0;stroke-opacity:1;color-rendering:auto;image-rendering:auto;shape-rendering:auto;text-rendering:auto;enable-background:accumulate"
           d="M 3,5.5 V 7.134884 H 21 V 5.5 Z"
           id="line14087"
           inkscape:connector-curvature="0"
           sodipodi:nodetypes="ccccc" />
        <path
           style="color:#000000;font-style:normal;font-variant:normal;font-weight:normal;font-stretch:normal;font-size:medium;line-height:normal;font-family:sans-serif;font-variant-ligatures:normal;font-variant-position:normal;font-variant-caps:normal;font-variant-numeric:normal;font-variant-alternates:normal;font-feature-settings:normal;text-indent:0;text-align:start;text-decoration:none;text-decoration-line:none;text-decoration-style:solid;text-decoration-color:#000000;letter-spacing:normal;word-spacing:normal;text-transform:none;writing-mode:lr-tb;direction:ltr;text-orientation:mixed;dominant-baseline:auto;baseline-shift:baseline;text-anchor:start;white-space:normal;shape-padding:0;clip-rule:nonzero;display:inline;overflow:visible;visibility:visible;opacity:1;isolation:auto;mix-blend-mode:normal;color-interpolation:sRGB;color-interpolation-filters:linearRGB;solid-color:#000000;solid-opacity:1;vector-effect:none;fill-opacity:1;fill-rule:nonzero;stroke:none;stroke-width:1;stroke-linecap:butt;stroke-linejoin:miter;stroke-miterlimit:4;stroke-dasharray:none;stroke-dashoffset:0;stroke-opacity:1;color-rendering:auto;image-rendering:auto;shape-rendering:auto;text-rendering:auto;enable-background:accumulate"
           d="M 3,16.865073 V 18.5 h 18 v -1.634927 z"
           id="line14089"
           inkscape:connector-curvature="0"
           sodipodi:nodetypes="ccccc" />
      </g>
    </g>
  </g>
</svg>
