<?xml version="1.0" encoding="UTF-8" standalone="no"?>
<!-- Created with Inkscape (http://www.inkscape.org/) -->

<svg
   xmlns:dc="http://purl.org/dc/elements/1.1/"
   xmlns:cc="http://creativecommons.org/ns#"
   xmlns:rdf="http://www.w3.org/1999/02/22-rdf-syntax-ns#"
   xmlns:svg="http://www.w3.org/2000/svg"
   xmlns="http://www.w3.org/2000/svg"
   xmlns:sodipodi="http://sodipodi.sourceforge.net/DTD/sodipodi-0.dtd"
   xmlns:inkscape="http://www.inkscape.org/namespaces/inkscape"
   width="8.0868015mm"
   height="8.7199745mm"
   viewBox="0 0 8.0868015 8.7199745"
   version="1.1"
   id="svg11923"
   inkscape:version="0.92.3 (2405546, 2018-03-11)"
   sodipodi:docname="github.svg">
  <defs
     id="defs11917" />
  <sodipodi:namedview
     id="base"
     pagecolor="#ffffff"
     bordercolor="#666666"
     borderopacity="1.0"
     inkscape:pageopacity="0.0"
     inkscape:pageshadow="2"
     inkscape:zoom="0.35"
     inkscape:cx="38.139288"
     inkscape:cy="16.478684"
     inkscape:document-units="mm"
     inkscape:current-layer="layer1"
     showgrid="false"
     inkscape:window-width="2560"
     inkscape:window-height="1346"
     inkscape:window-x="-11"
     inkscape:window-y="-11"
     inkscape:window-maximized="1" />
  <metadata
     id="metadata11920">
    <rdf:RDF>
      <cc:Work
         rdf:about="">
        <dc:format>image/svg+xml</dc:format>
        <dc:type
           rdf:resource="http://purl.org/dc/dcmitype/StillImage" />
        <dc:title></dc:title>
      </cc:Work>
    </rdf:RDF>
  </metadata>
  <g
     inkscape:label="Calque 1"
     inkscape:groupmode="layer"
     id="layer1"
     transform="translate(41.463044,-144.47334)">
    <g
       id="use8588"
       transform="matrix(0.07000434,0,0,0.07000434,-82.461929,134.33848)">
      <g
         class="icon-links"
         transform="matrix(22.390032,0,0,22.390032,-619.28013,-5114.2549)"
         id="g12482">
        <g
           id="g12480"
           transform="matrix(0.26458333,0,0,0.26458333,53.286843,234.62514)">
          <path
             id="path12478"
             d="M 9,19 C 4,20.5 4,16.5 2,16 m 14,6 v -3.87 a 3.37,3.37 0 0 0 -0.94,-2.61 c 3.14,-0.35 6.44,-1.54 6.44,-7 A 5.44,5.44 0 0 0 20,4.77 5.07,5.07 0 0 0 19.91,1 c 0,0 -1.18,-0.35 -3.91,1.48 a 13.38,13.38 0 0 0 -7,0 C 6.27,0.65 5.09,1 5.09,1 A 5.07,5.07 0 0 0 5,4.77 5.44,5.44 0 0 0 3.5,8.55 c 0,5.42 3.3,6.61 6.44,7 A 3.37,3.37 0 0 0 9,18.13 V 22"
             inkscape:connector-curvature="0" />
        </g>
      </g>
    </g>
  </g>
</svg>
