<?xml version="1.0" encoding="UTF-8" standalone="no"?>
<!-- Created with Inkscape (http://www.inkscape.org/) -->

<svg
   xmlns:dc="http://purl.org/dc/elements/1.1/"
   xmlns:cc="http://creativecommons.org/ns#"
   xmlns:rdf="http://www.w3.org/1999/02/22-rdf-syntax-ns#"
   xmlns:svg="http://www.w3.org/2000/svg"
   xmlns="http://www.w3.org/2000/svg"
   xmlns:sodipodi="http://sodipodi.sourceforge.net/DTD/sodipodi-0.dtd"
   xmlns:inkscape="http://www.inkscape.org/namespaces/inkscape"
   width="7.3081613mm"
   height="8.9946604mm"
   viewBox="0 0 7.3081613 8.9946604"
   version="1.1"
   id="svg8996"
   inkscape:version="0.92.3 (2405546, 2018-03-11)"
   sodipodi:docname="lab.svg">
  <defs
     id="defs8990" />
  <sodipodi:namedview
     id="base"
     pagecolor="#ffffff"
     bordercolor="#666666"
     borderopacity="1.0"
     inkscape:pageopacity="0.0"
     inkscape:pageshadow="2"
     inkscape:zoom="11.2"
     inkscape:cx="-19.992231"
     inkscape:cy="-11.236105"
     inkscape:document-units="mm"
     inkscape:current-layer="layer1"
     showgrid="false"
     inkscape:window-width="2560"
     inkscape:window-height="1346"
     inkscape:window-x="-11"
     inkscape:window-y="-11"
     inkscape:window-maximized="1" />
  <metadata
     id="metadata8993">
    <rdf:RDF>
      <cc:Work
         rdf:about="">
        <dc:format>image/svg+xml</dc:format>
        <dc:type
           rdf:resource="http://purl.org/dc/dcmitype/StillImage" />
        <dc:title></dc:title>
      </cc:Work>
    </rdf:RDF>
  </metadata>
  <g
     inkscape:label="Calque 1"
     inkscape:groupmode="layer"
     id="layer1"
     transform="translate(-0.26770307,-0.19383874)">
    <g
       id="use8493"
       transform="matrix(0.07000434,0,0,0.07000434,0.00154074,-9.6826067)">
      <g
         class="icon-purpose"
         transform="matrix(3.0351303,0,0,3.0351303,-25.107532,-501.76994)"
         id="g9558">
        <g
           transform="matrix(1.5139782,0,0,1.3333313,2.6885123,-142.21467)"
           id="g9556"
           inkscape:label="Calque 1">
          <g
             transform="translate(4.3684263,47.640029)"
             id="g9554">
            <path
               style="fill-opacity:1"
               d="m 3.777709,249.51768 c -2.47935,-0.59741 -4.117135,-3.27826 -3.500008,-5.72909 0.09309,-0.36972 1.561682,-3.2806 3.26353,-6.46864 l 3.09427,-5.79646 0.01087,-4.94232 0.01087,-4.94231 -1.148727,-0.0707 c -1.109964,-0.0683 -1.165029,-0.0884 -1.631638,-0.59807 -0.392117,-0.4283 -0.482808,-0.64069 -0.482379,-1.12968 6.94e-4,-0.7731 0.42873,-1.47784 1.057098,-1.74039 0.719662,-0.30068 13.404159,-0.30068 14.123819,0 1.128393,0.47148 1.40259,2.05809 0.510113,2.95172 -0.408494,0.40902 -0.538942,0.45163 -1.580499,0.51642 l -1.135257,0.0707 0.01087,4.94231 0.01087,4.94232 3.094271,5.79646 c 1.701846,3.18804 3.170435,6.09892 3.263529,6.46864 0.251337,0.99815 0.09126,2.22382 -0.428286,3.27915 -0.490854,0.99708 -1.234191,1.69731 -2.346211,2.21014 -0.692289,0.31924 -0.721826,0.3205 -8.178891,0.34446 -4.116252,0.0132 -7.724449,-0.0339 -8.018218,-0.10466 z m 15.93931,-1.49967 c 1.2499,-0.66884 1.971397,-1.97943 1.867609,-3.39249 -0.05476,-0.74557 -0.336493,-1.33414 -3.229836,-6.74761 l -3.169842,-5.93079 -0.07061,-5.15413 -0.07061,-5.15413 H 11.513496 7.983264 l -0.07061,5.15413 -0.0706,5.15413 -3.16849,5.93044 c -2.741285,5.13085 -3.176811,6.03077 -3.230196,6.67454 -0.143745,1.73337 0.847062,3.19775 2.514516,3.71639 0.194665,0.0605 3.690008,0.0986 7.767427,0.0845 7.334701,-0.0253 7.419635,-0.0289 7.991696,-0.33497 z M 3.818916,246.86513 c -0.68053,-0.36497 -1.178607,-1.32504 -1.065343,-2.05354 0.04903,-0.31534 1.062761,-2.38083 2.373706,-4.83642 l 2.288131,-4.28601 h 4.098098 4.098097 l 2.319345,4.3422 c 2.567523,4.80681 2.659073,5.08644 2.009444,6.13757 -0.603194,0.97598 -0.446307,0.9582 -8.45043,0.9582 -6.726186,0 -7.213575,-0.0167 -7.671048,-0.262 z m 12.009001,-4.18999 c 1.325294,-0.68534 1.658381,-2.55277 0.658461,-3.69162 -1.720059,-1.95903 -4.813166,-0.36643 -4.179079,2.15177 0.192937,0.76622 0.888805,1.53857 1.572369,1.74518 0.552631,0.16702 1.401117,0.0776 1.948249,-0.20533 z m -5.499754,-9.51379 c -1.06428,-0.99418 -0.139643,-2.7695 1.301617,-2.4991 0.719095,0.1349 1.154612,0.68148 1.154612,1.44904 0,0.53952 -0.06974,0.69797 -0.461159,1.04769 -0.635781,0.56807 -1.388526,0.56897 -1.99507,0.002 z m 2.240787,-7.14888 c -0.481356,-0.51239 -0.457505,-1.26909 0.05387,-1.70896 1.016766,-0.87458 2.434525,0.13378 1.923323,1.36793 -0.211999,0.51182 -0.522116,0.69791 -1.16301,0.69791 -0.32963,0 -0.583405,-0.11124 -0.814178,-0.35688 z"
               id="path9552"
               inkscape:connector-curvature="0" />
          </g>
        </g>
      </g>
    </g>
  </g>
</svg>
