<?xml version="1.0" encoding="UTF-8" standalone="no"?>
<!-- Created with Inkscape (http://www.inkscape.org/) -->

<svg
   xmlns:dc="http://purl.org/dc/elements/1.1/"
   xmlns:cc="http://creativecommons.org/ns#"
   xmlns:rdf="http://www.w3.org/1999/02/22-rdf-syntax-ns#"
   xmlns:svg="http://www.w3.org/2000/svg"
   xmlns="http://www.w3.org/2000/svg"
   xmlns:sodipodi="http://sodipodi.sourceforge.net/DTD/sodipodi-0.dtd"
   xmlns:inkscape="http://www.inkscape.org/namespaces/inkscape"
   width="11.037352mm"
   height="8.8298807mm"
   viewBox="0 0 11.037352 8.8298807"
   version="1.1"
   id="svg10761"
   inkscape:version="0.92.3 (2405546, 2018-03-11)"
   sodipodi:docname="books.svg">
  <defs
     id="defs10755" />
  <sodipodi:namedview
     id="base"
     pagecolor="#ffffff"
     bordercolor="#666666"
     borderopacity="1.0"
     inkscape:pageopacity="0.0"
     inkscape:pageshadow="2"
     inkscape:zoom="2.8"
     inkscape:cx="-349.87167"
     inkscape:cy="-179.57643"
     inkscape:document-units="mm"
     inkscape:current-layer="layer1"
     showgrid="false"
     inkscape:window-width="2560"
     inkscape:window-height="1346"
     inkscape:window-x="-11"
     inkscape:window-y="-11"
     inkscape:window-maximized="1" />
  <metadata
     id="metadata10758">
    <rdf:RDF>
      <cc:Work
         rdf:about="">
        <dc:format>image/svg+xml</dc:format>
        <dc:type
           rdf:resource="http://purl.org/dc/dcmitype/StillImage" />
        <dc:title></dc:title>
      </cc:Work>
    </rdf:RDF>
  </metadata>
  <g
     inkscape:label="Calque 1"
     inkscape:groupmode="layer"
     id="layer1"
     transform="translate(42.938318,-144.4184)">
    <g
       id="use8536"
       transform="matrix(0.07000434,0,0,0.07000434,-60.477322,134.40194)">
      <g
         class="icon-purpose"
         transform="matrix(2.9795276,0,0,2.9795276,249.75333,-614.91469)"
         id="g11320">
        <g
           transform="matrix(0.69385364,0,0,0.7126084,-1.0939733,92.266326)"
           id="g11318"
           inkscape:label="Calque 1">
          <path
             inkscape:connector-curvature="0"
             id="path11316"
             d="M 19.503744,282.39571 C 11.934083,279.92097 5.4117517,277.7201 5.0096728,277.50492 2.9368007,276.39554 1.4134701,270.85109 2.1601014,267.13334 c 0.2129946,-1.06057 0.695664,-2.36144 1.0725995,-2.89079 0.882022,-1.2387 0.8809415,-1.24271 -0.402439,-1.49939 -1.0768567,-0.21536 -1.0811139,-0.22405 -0.4241152,-0.86625 0.3650143,-0.35679 1.5757155,-0.95287 2.6904494,-1.32463 2.3450621,-0.78205 2.6995939,-1.43682 2.3527676,-4.34532 -0.2706984,-2.27008 -1.1397604,-3.65378 -2.8394339,-4.52086 -1.8842855,-0.96132 -1.8567685,-1.88596 0.071512,-2.40314 2.0417108,-0.54761 2.0422444,-0.54861 1.1312404,-2.12046 -1.7178957,-2.96408 -1.9982226,-8.22733 -0.5856655,-10.99617 1.1045491,-2.16509 2.2358479,-2.64255 8.1911763,-3.45707 2.892469,-0.3956 12.466248,-1.72406 21.275084,-2.9521 l 16.016068,-2.23281 9.770095,2.94134 c 17.06482,5.13744 16.38627,4.90348 16.38627,5.64984 0,0.43443 -0.387234,0.83179 -1.102704,1.13155 -0.606478,0.25411 -1.444446,0.82681 -1.86214,1.2727 -0.898115,0.9587 -1.557554,3.97174 -1.260996,5.76152 0.19144,1.15544 0.345631,1.29901 1.962333,1.82725 2.205801,0.72074 3.620668,1.42938 3.620668,1.81341 0,0.16328 -0.801579,0.48479 -1.781273,0.7146 -0.979714,0.22984 -1.888126,0.47837 -2.018707,0.55228 -0.130581,0.0739 0.09849,0.70268 0.508931,1.39725 0.639641,1.08228 0.743654,1.74799 0.727381,4.65577 -0.02049,3.65489 -0.652979,5.76133 -2.192252,7.30059 -0.605351,0.60535 -0.661905,0.81044 -0.288668,1.04689 0.255282,0.16176 0.638678,0.29638 0.851973,0.29925 0.663905,0.009 0.782189,0.93578 0.183051,1.4345 -0.313989,0.26137 -0.982673,0.65048 -1.485976,0.86467 -0.503314,0.21418 -1.158753,0.76128 -1.456535,1.21577 -0.690483,1.05381 -1.146646,3.90919 -0.883314,5.52924 0.192661,1.18526 0.316617,1.29028 2.312638,1.95947 2.30044,0.77125 3.634943,1.7459 2.783824,2.03315 -1.184332,0.39972 -41.465004,10.03648 -41.820052,10.00505 -0.218438,-0.0194 -6.590505,-2.05996 -14.160158,-4.53473 z m 14.611239,-4.07919 c 0,-4.41252 -0.02102,-4.54378 -0.763415,-4.76339 -0.419871,-0.12424 -6.60411,-2.12943 -13.742749,-4.45606 -7.13864,-2.32661 -13.2462649,-4.14551 -13.5724971,-4.04196 -2.1743601,0.6901 -2.3595924,7.7162 -0.2555381,9.69284 0.5527563,0.51929 3.1489897,1.40297 8.5417442,2.90736 4.261184,1.18873 10.343181,2.90392 13.515565,3.8115 3.17237,0.9076 5.882462,1.59103 6.022419,1.51873 0.139951,-0.0724 0.254471,-2.17339 0.254471,-4.66902 z m 33.643026,-3.2469 1.240683,-0.32763 0.138707,-3.30353 c 0.0763,-1.81696 0.262529,-3.5785 0.413857,-3.91453 0.231854,-0.51484 0.148247,-0.58236 -0.531165,-0.42892 -0.443478,0.10011 -5.310415,1.10351 -10.815426,2.2297 -5.504997,1.12619 -10.968781,2.36405 -12.141718,2.7508 -1.172951,0.38676 -2.326435,0.62883 -2.563313,0.53793 -0.236879,-0.0909 -2.101804,0.16856 -4.144272,0.57644 l -3.713579,0.74172 -0.09412,4.61224 -0.09412,4.61223 15.53191,-3.87943 c 8.542553,-2.13368 16.090214,-4.02684 16.772598,-4.20702 z m -25.500029,-10.91836 -0.169646,-4.494 -4.410798,-0.92024 c -17.902998,-3.73517 -29.4573839,-6.04428 -29.5884906,-5.91317 -0.084974,0.085 0.040251,0.51108 0.2782718,0.94694 0.2560057,0.4688 0.4355083,2.00985 0.4394846,3.77305 0.00622,2.71351 0.068628,2.99575 0.6974246,3.14983 0.379887,0.0931 7.6376996,1.90375 16.1284596,4.02376 8.490772,2.12002 15.743131,3.87104 16.116348,3.89117 0.654299,0.0355 0.672523,-0.12405 0.508946,-4.45734 z m 15.498148,0.79121 c 7.244584,-2.03573 13.409075,-3.79637 13.698876,-3.91247 1.0932,-0.43805 1.80435,-2.30565 1.952461,-5.12754 0.162369,-3.09372 -0.399711,-4.75172 -1.722122,-5.07975 -0.464549,-0.1152 -4.560347,1.05324 -10.596691,3.0231 -5.411693,1.76603 -11.557118,3.76713 -13.656483,4.44689 l -3.817028,1.23592 v 3.49733 c 0,3.67586 0.240789,5.61789 0.696554,5.61789 0.14985,0 6.199833,-1.6656 13.444433,-3.70137 z M 36.277969,253.33333 c 0.116573,-0.58317 0.212052,-2.63766 0.212052,-4.56557 v -3.50533 l -13.526287,-4.42561 c -7.439455,-2.43412 -13.8543142,-4.42564 -14.2552319,-4.42564 -1.1990192,0 -2.0733849,1.84214 -2.0748649,4.37141 -0.00154,2.60906 0.5270455,4.53309 1.4908024,5.4266 0.4649447,0.43106 5.3208254,1.96159 13.9456944,4.39553 7.2778,2.05382 13.404127,3.74652 13.614075,3.76157 0.209937,0.0151 0.477129,-0.44979 0.59376,-1.03296 z m 18.54591,-3.02527 16.46775,-4.09988 0.02285,-2.94758 c 0.01282,-1.62116 0.194148,-3.36745 0.403595,-3.88063 0.209448,-0.51318 0.248023,-0.93306 0.08565,-0.93306 -0.777644,0 -33.477136,6.85474 -33.676761,7.0596 -0.384055,0.39412 -0.489208,8.88727 -0.110163,8.89473 0.186615,0.004 7.749774,-1.83826 16.807042,-4.09318 z"
             style="fill-opacity:1" />
        </g>
      </g>
    </g>
  </g>
</svg>
