<?xml version="1.0" encoding="UTF-8" standalone="no"?>
<!-- Created with Inkscape (http://www.inkscape.org/) -->

<svg
   xmlns:dc="http://purl.org/dc/elements/1.1/"
   xmlns:cc="http://creativecommons.org/ns#"
   xmlns:rdf="http://www.w3.org/1999/02/22-rdf-syntax-ns#"
   xmlns:svg="http://www.w3.org/2000/svg"
   xmlns="http://www.w3.org/2000/svg"
   xmlns:sodipodi="http://sodipodi.sourceforge.net/DTD/sodipodi-0.dtd"
   xmlns:inkscape="http://www.inkscape.org/namespaces/inkscape"
   width="9.1062441mm"
   height="8.6509323mm"
   viewBox="0 0 9.1062441 8.6509323"
   version="1.1"
   id="svg10177"
   inkscape:version="0.92.3 (2405546, 2018-03-11)"
   sodipodi:docname="linkedin.svg">
  <defs
     id="defs10171" />
  <sodipodi:namedview
     id="base"
     pagecolor="#ffffff"
     bordercolor="#666666"
     borderopacity="1.0"
     inkscape:pageopacity="0.0"
     inkscape:pageshadow="2"
     inkscape:zoom="5.6"
     inkscape:cx="-1.4078655"
     inkscape:cy="-36.496002"
     inkscape:document-units="mm"
     inkscape:current-layer="layer1"
     showgrid="false"
     inkscape:window-width="2560"
     inkscape:window-height="1346"
     inkscape:window-x="-11"
     inkscape:window-y="-11"
     inkscape:window-maximized="1" />
  <metadata
     id="metadata10174">
    <rdf:RDF>
      <cc:Work
         rdf:about="">
        <dc:format>image/svg+xml</dc:format>
        <dc:type
           rdf:resource="http://purl.org/dc/dcmitype/StillImage" />
        <dc:title></dc:title>
      </cc:Work>
    </rdf:RDF>
  </metadata>
  <g
     inkscape:label="Calque 1"
     inkscape:groupmode="layer"
     id="layer1"
     transform="translate(-5.2742613,-5.412634)">
    <g
       id="use8507"
       transform="matrix(0.07000434,0,0,0.07000434,-2.7762781,-4.5095338)">
      <g
         class="icon-links"
         transform="matrix(24.582263,0,0,24.582263,-1219.388,-5422.0339)"
         id="g10742">
        <g
           id="g10740"
           transform="matrix(0.26458333,0,0,0.26458333,53.75341,225.80355)">
          <path
             id="path10734"
             d="m 16,8 a 6,6 0 0 1 6,6 v 7 h -4 v -7 a 2,2 0 0 0 -2,-2 2,2 0 0 0 -2,2 v 7 h -4 v -7 a 6,6 0 0 1 6,-6 z"
             inkscape:connector-curvature="0" />
          <rect
             id="rect10736"
             height="12"
             width="4"
             y="9"
             x="2" />
          <circle
             id="circle10738"
             r="2"
             cy="4"
             cx="4" />
        </g>
      </g>
    </g>
  </g>
</svg>
