<?xml version="1.0" encoding="UTF-8" standalone="no"?>
<!-- Created with Inkscape (http://www.inkscape.org/) -->

<svg
   xmlns:dc="http://purl.org/dc/elements/1.1/"
   xmlns:cc="http://creativecommons.org/ns#"
   xmlns:rdf="http://www.w3.org/1999/02/22-rdf-syntax-ns#"
   xmlns:svg="http://www.w3.org/2000/svg"
   xmlns="http://www.w3.org/2000/svg"
   xmlns:sodipodi="http://sodipodi.sourceforge.net/DTD/sodipodi-0.dtd"
   xmlns:inkscape="http://www.inkscape.org/namespaces/inkscape"
   width="7.9804935mm"
   height="7.6005197mm"
   viewBox="0 0 7.9804935 7.6005197"
   version="1.1"
   id="svg13675"
   inkscape:version="0.92.3 (2405546, 2018-03-11)"
   sodipodi:docname="umbrella.svg">
  <defs
     id="defs13669" />
  <sodipodi:namedview
     id="base"
     pagecolor="#ffffff"
     bordercolor="#666666"
     borderopacity="1.0"
     inkscape:pageopacity="0.0"
     inkscape:pageshadow="2"
     inkscape:zoom="0.35"
     inkscape:cx="-3.4901776"
     inkscape:cy="-225.63681"
     inkscape:document-units="mm"
     inkscape:current-layer="layer1"
     showgrid="false"
     inkscape:window-width="2560"
     inkscape:window-height="1346"
     inkscape:window-x="-11"
     inkscape:window-y="-11"
     inkscape:window-maximized="1" />
  <metadata
     id="metadata13672">
    <rdf:RDF>
      <cc:Work
         rdf:about="">
        <dc:format>image/svg+xml</dc:format>
        <dc:type
           rdf:resource="http://purl.org/dc/dcmitype/StillImage" />
        <dc:title></dc:title>
      </cc:Work>
    </rdf:RDF>
  </metadata>
  <g
     inkscape:label="Calque 1"
     inkscape:groupmode="layer"
     id="layer1"
     transform="translate(30.448581,-81.533073)">
    <g
       id="use8702"
       transform="matrix(0.07000434,0,0,0.07000434,-101.83915,70.814427)">
      <path
         style="stroke-width:1.00030208"
         class="icon-logo"
         d="m 1118.4628,261.4534 c 2.614,-0.59435 4.6682,-1.57772 6.7399,-3.22624 5.3881,-4.28739 6.944,-11.7813 3.5738,-17.21277 -0.4922,-0.7936 -0.4483,-0.80453 -2.6825,0.66408 -0.7039,0.46277 -1.3622,0.87065 -1.4627,0.90645 -0.1037,0.0369 -0.056,0.21661 0.1098,0.41176 0.4245,0.50418 1.026,1.85857 1.2781,2.8778 0.1367,0.55212 0.1803,1.50183 0.1139,2.52317 -0.093,1.43324 -0.2031,1.83639 -0.8759,3.22863 -1.7307,3.5767 -5.369,5.8878 -9.2687,5.8878 -3.631,0 -6.0065,-1.47408 -8.2483,-5.1183 -0.3408,-0.55385 -0.8018,-1.29508 -1.0243,-1.64705 -0.2223,-0.352 -1.377,-2.20334 -2.5655,-4.11409 -1.1887,-1.91076 -2.5381,-4.07547 -2.9986,-4.81043 -0.4606,-0.73497 -1.1307,-1.80466 -1.4893,-2.37703 -0.3586,-0.57237 -1.5425,-2.48064 -2.6309,-4.24056 -1.0885,-1.75989 -2.1619,-3.48778 -2.3849,-3.83977 -0.2233,-0.35205 -1.3782,-2.20332 -2.5669,-4.11406 -1.1886,-1.91072 -2.5214,-4.05006 -2.9617,-4.75401 -1.7036,-2.72417 -3.374,-5.41139 -5.0011,-8.04531 -0.9319,-1.50849 -1.9822,-3.1843 -2.3343,-3.72402 l -0.6398,-0.98128 0.2257,-1.5958 c 0.3081,-2.17581 0.9301,-4.09819 1.9409,-5.99901 1.072,-2.01549 1.9865,-3.20077 3.7131,-4.81318 5.7276,-5.349 14.9802,-6.04473 21.4706,-1.61444 0.5993,0.409 1.1284,0.70459 1.1762,0.65689 0.048,-0.0476 0,-0.56243 -0.1098,-1.14387 -0.5667,-3.06603 0.1451,-7.36533 1.7222,-10.38946 1.2416,-2.38229 3.2184,-4.70844 5.4085,-6.36468 1.1399,-0.86206 3.3428,-1.92556 5.1989,-2.50978 3.2074,-1.00957 7.3586,-0.97103 10.4531,0.097 0.7531,0.26 1.4094,0.43284 1.458,0.38412 0.091,-0.092 -3.4321,-3.70055 -4.8715,-4.98776 -7.879,-7.047 -17.4275,-12.10884 -27.7013,-14.68509 -5.6311,-1.41203 -9.9309,-1.92526 -15.9993,-1.90965 -4.8011,0.0125 -7.4753,0.22431 -11.2449,0.89132 -6.5786,1.164 -12.5908,3.18626 -18.5591,6.24264 -2.8577,1.46333 -3.0293,1.52665 -3.2481,1.1981 -0.2177,-0.32682 -1.8129,-2.35568 -6.1035,-7.7632 l -1.8473,-2.3283 -0.4923,0.29081 c -0.2708,0.16 -0.6795,0.43189 -0.908,0.60432 l -0.4157,0.3135 0.4219,0.90115 c 0.2319,0.49566 0.7604,1.51828 1.1743,2.27255 0.4141,0.75425 1.2315,2.27644 1.8162,3.38267 0.5847,1.10625 1.4304,2.70351 1.8789,3.5495 l 0.8158,1.53817 -0.4317,0.33933 c -0.2373,0.18655 -0.9663,0.72431 -1.62,1.1948 -3.469,2.49679 -7.9397,6.65075 -10.9804,10.20242 -7.8024,9.11358 -13.1558,20.78756 -14.8846,32.45863 -1.7932,12.10276 -0.5895,22.77365 3.8803,34.40676 l 0.3303,0.85959 0.2144,-1.77379 c 0.3937,-3.25652 1.7776,-6.66734 3.6711,-9.04681 3.8345,-4.81887 10.1531,-7.39335 15.9967,-6.51785 2.9186,0.4372 5.0816,1.22606 7.3239,2.67079 0.6902,0.44467 1.2851,0.77854 1.3218,0.74188 0.037,-0.0369 -0.02,-0.55527 -0.1119,-1.15253 -0.8561,-5.22716 1.282,-11.34428 5.285,-15.1205 2.0263,-1.91151 4.3229,-3.27271 6.7858,-4.0217 3.6451,-1.10861 6.9643,-1.13736 10.3949,-0.0902 1.2428,0.37942 1.3798,0.47221 1.8197,1.23311 0.2616,0.45254 0.8985,1.48108 1.4157,2.2856 1.3282,2.06676 3.9871,6.32914 4.1578,6.66576 0.079,0.15545 0.4659,0.77613 0.8603,1.37954 0.3941,0.6034 0.9387,1.46736 1.21,1.9199 0.271,0.45254 0.7568,1.23422 1.0787,1.73707 0.3219,0.50287 1.9674,3.13583 3.6566,5.85111 1.6894,2.7153 3.2001,5.1426 3.3577,5.39401 0.1574,0.25146 2.0319,3.25471 4.1653,6.67394 4.3567,6.98223 4.9571,7.9419 6.7478,10.78525 2.0754,3.29527 4.0984,4.97118 7.3045,6.0513 1.8123,0.61059 5.1401,0.78136 6.9967,0.35912 z"
         inkscape:connector-curvature="0"
         id="path14228" />
    </g>
  </g>
</svg>
